<svg viewBox="0 0 64 64" xmlns="http://www.w3.org/2000/svg">
    <!-- Background circle -->
    <circle cx="32" cy="32" r="30" fill="#1a0d2e" stroke="#4a1a5c" stroke-width="2"/>

    <!-- Horned crown/helmet -->
    <path d="M20 20 L22 12 L26 16 L32 10 L38 16 L42 12 L44 20 Z" fill="#2d1810" stroke="#8b4513" stroke-width="1"/>

    <!-- Face/skull outline -->
    <ellipse cx="32" cy="35" rx="12" ry="15" fill="#e8dcc6" stroke="#d4c4a0" stroke-width="1"/>

    <!-- Dark eye sockets -->
    <ellipse cx="28" cy="30" rx="3" ry="4" fill="#000"/>
    <ellipse cx="36" cy="30" rx="3" ry="4" fill="#000"/>

    <!-- Glowing red eyes -->
    <circle cx="28" cy="30" r="1.5" fill="#ff0000">
        <animate attributeName="opacity" values="0.8;1;0.8" dur="2s" repeatCount="indefinite"/>
    </circle>
    <circle cx="36" cy="30" r="1.5" fill="#ff0000">
        <animate attributeName="opacity" values="0.8;1;0.8" dur="2s" repeatCount="indefinite"/>
    </circle>

    <!-- Nose cavity -->
    <path d="M32 34 L30 38 L32 42 L34 38 Z" fill="#000"/>

    <!-- Mouth/jaw -->
    <path d="M26 45 Q32 48 38 45" fill="none" stroke="#000" stroke-width="2"/>

    <!-- Mystical glow effect -->
    <circle cx="32" cy="32" r="28" fill="none" stroke="#6a0dad" stroke-width="1" opacity="0.3">
        <animate attributeName="r" values="26;30;26" dur="3s" repeatCount="indefinite"/>
        <animate attributeName="opacity" values="0.2;0.5;0.2" dur="3s" repeatCount="indefinite"/>
    </circle>

    <!-- Additional horn details -->
    <circle cx="22" cy="16" r="2" fill="#4a1a1a"/>
    <circle cx="42" cy="16" r="2" fill="#4a1a1a"/>
    <circle cx="32" cy="10" r="2" fill="#4a1a1a"/>
</svg>